#!OML:ASF Y:\EmotionMaleHayes\Project 1\Capture day 1\Session 1\Male1.ASF
:FULLY-SPECIFIED
:DEGREES
1013
root 41.7681 16.9748 10.572 529.998 34.8189 531.323
lowerback 7.53919 -0.917185 -13.2814
upperback 1.87325 -2.03678 -2.42339
thorax -1.86256 -0.866811 5.06249
lowerneck -19.5782 -5.8866 -3.61234
upperneck 16.5151 -6.69408 -1.27329
head 8.43412 -3.51215 -0.704809
rclavicle 1.85615e-014 -8.07066e-014
rhumerus -44.0244 -1.88421 -81.9168
rradius 30.8723
rwrist 5.48605
rhand -8.83573 -32.1062
rfingers 7.12502
rthumb 17.1046 -61.3732
lclavicle 1.85615e-014 -8.07066e-014
lhumerus -18.418 -23.9087 86.9126
lradius 44.76
lwrist 4.44817
lhand -14.8715 -20.7771
lfingers 7.12502
lthumb 11.2887 8.89911
rfemur -14.9384 3.4896 4.80143
rtibia 46.4779
rfoot -15.4135 -7.689
rtoes 9.60495
lfemur 14.699 7.45189 -34.0618
ltibia 2.13171
lfoot -11.08 -1.11275
ltoes 14.0666
1014
root 41.8316 16.9704 10.5004 529.804 34.1511 530.796
lowerback 7.59796 -1.03075 -13.875
upperback 1.8516 -2.22899 -2.54511
thorax -1.86009 -0.951025 5.27548
lowerneck -19.7832 -5.92172 -4.40472
upperneck 16.789 -6.7014 -0.33946
head 8.62748 -3.46516 -0.281129
rclavicle -5.53864e-014 3.57812e-015
rhumerus -44.5991 -2.47796 -81.3207
rradius 30.7359
rwrist 5.598
rhand -8.4526 -32.2798
rfingers 7.12502
rthumb 17.4733 -61.5145
lclavicle -5.53864e-014 3.57812e-015
lhumerus -18.0682 -24.3224 86.825
lradius 45.0483
lwrist 4.64008
lhand -14.8346 -20.9721
lfingers 7.12502
lthumb 11.3243 8.70222
rfemur -15.6211 3.47599 4.23935
rtibia 45.1505
rfoot -15.3942 -7.77821
rtoes 8.76475
lfemur 14.9646 6.97217 -34.7197
ltibia 2.20967
lfoot -11.4728 -1.18543
ltoes 10.2293
1015
root 41.8943 16.9673 10.4241 529.508 33.3439 529.973
lowerback 7.57828 -1.1487 -14.7641
upperback 1.84217 -2.42734 -2.68688
thorax -1.78201 -1.03934 5.62458
lowerneck -19.6993 -5.83098 -3.64844
upperneck 16.4875 -6.65486 -1.03777
head 8.45497 -3.47112 -0.618583
rclavicle 2.78795e-014 -3.26007e-014
rhumerus -45.1139 -3.15065 -80.5721
rradius 30.5217
rwrist 5.95621
rhand -8.01261 -32.2941
rfingers 7.12502
rthumb 17.8967 -61.4907
lclavicle 2.78795e-014 -3.26007e-014
lhumerus -17.5575 -24.8411 86.8375
lradius 45.179
lwrist 4.78778
lhand -14.7331 -21.062
lfingers 7.12502
lthumb 11.4222 8.6069
rfemur -16.2425 3.01041 3.30913
rtibia 43.7386
rfoot -14.0002 -7.94378
rtoes -1.93485
lfemur 15.1135 6.46869 -35.7591
ltibia 2.42871
lfoot -11.8547 -1.31338
ltoes 9.76811
1016
root 41.9556 16.9679 10.3438 529.802 32.7749 530.1
lowerback 7.42521 -1.30195 -14.7454
upperback 1.85415 -2.60267 -2.61615
thorax -1.6453 -1.13857 5.69584
lowerneck -19.8901 -5.80815 -3.75856
upperneck 16.4153 -6.60904 -0.921543
head 8.47107 -3.4441 -0.560874
rclavicle 2.63638e-014 2.90226e-014
rhumerus -45.5763 -3.57168 -79.9441
rradius 30.3183
rwrist 6.10623
rhand -8.02134 -32.4228
rfingers 7.12502
rthumb 17.8883 -61.6201
lclavicle 2.63638e-014 2.90226e-014
lhumerus -17.0415 -25.354 86.8272
lradius 45.3141
lwrist 5.0122
lhand -14.6274 -20.9572
lfingers 7.12502
lthumb 11.5241 8.70601
rfemur -16.7995 2.90582 3.42942
rtibia 42.1347
rfoot -13.7334 -8.01272
rtoes -4.31786
lfemur 15.287 5.98525 -35.8473
ltibia 2.53549
lfoot -12.2158 -1.50653
ltoes 9.76117
1017
root 42.0136 16.9618 10.2666 529.938 32.4673 530.329
lowerback 7.49922 -1.36174 -14.5607
upperback 1.90062 -2.68074 -2.5286
thorax -1.62675 -1.18404 5.69504
lowerneck -20.088 -5.77958 -4.06127
upperneck 16.3495 -6.53013 -0.650708
head 8.50271 -3.39672 -0.417067
rclavicle 9.37767e-014 4.57205e-014
rhumerus -46.0677 -3.89504 -79.3709
rradius 30.1959
rwrist 6.18688
rhand -8.19493 -32.5402
rfingers 7.12502
rthumb 17.7213 -61.7527
lclavicle 9.37767e-014 4.57205e-014
lhumerus -16.6984 -25.7833 86.7931
lradius 45.6605
lwrist 5.23147
lhand -14.545 -20.8518
lfingers 7.12502
lthumb 11.6035 8.80697
rfemur -17.239 3.26213 3.72601
rtibia 40.545
rfoot -13.4438 -7.82896
rtoes -2.9763
lfemur 15.7159 5.77557 -35.6467
ltibia 2.49784
lfoot -12.4643 -1.68107
ltoes 9.20051
1018
root 42.0712 16.9553 10.1932 529.798 32.1233 530.027
lowerback 7.64113 -1.41304 -14.8839
upperback 1.89067 -2.79086 -2.57271
thorax -1.67805 -1.22908 5.8376
lowerneck -20.1565 -5.71805 -4.12908
upperneck 16.2957 -6.45628 -0.498508
head 8.50281 -3.34988 -0.346552
rclavicle 5.97596e-014 4.77083e-015
rhumerus -46.6013 -4.29315 -78.7954
rradius 30.0963
rwrist 6.33095
rhand -8.17265 -32.5472
rfingers 7.12502
rthumb 17.7427 -61.7578
lclavicle 5.97596e-014 4.77083e-015
lhumerus -16.3789 -26.0774 86.7096
lradius 45.9489
lwrist 5.40911
lhand -14.4067 -20.8759
lfingers 7.12502
lthumb 11.737 8.77527
rfemur -17.7804 3.37473 3.50076
rtibia 39.0707
rfoot -13.1031 -7.82483
rtoes -0.978358
lfemur 16.0572 5.59538 -35.9489
ltibia 2.53528
lfoot -12.6492 -1.70859
ltoes 8.45671
